
      <svg data-logo="logo" xmlns="http://www.w3.org/2000/svg" viewBox="0 0 48 41" width="48" height="41">
        <g id="logogram" transform="
    translate(0, 0)
    rotate(0 23.5 20.5)
    
  "><path d="M12.5391 38.5341L8.49231 31.5247L14.4313 21.2664L18.2052 27.8036L40.4836 27.7916L34.162 38.6309L12.5391 38.5341Z" fill="#FFAD64"/><path d="M44.4617 20.8316L40.4149 27.8408L28.5615 27.8268L32.3358 21.2898L21.1863 2.00211L33.7341 2.05716L44.4617 20.8316Z" fill="#ADD4D3"/><path d="M13.1627 1.96472H21.2564L27.1709 12.2373L19.6225 12.2369L8.49375 31.5366L2.26746 20.6424L13.1627 1.96472Z" fill="#FB8351"/><path fill-rule="evenodd" clip-rule="evenodd" d="M22.2432 0.341857L22.2191 0.299988H12.2067L0.345215 20.634L8.48747 34.8806L8.49746 34.8633L11.5756 40.1947L35.1159 40.3L43.3828 26.1252H43.3278L46.3817 20.8358L34.7027 0.396516L22.2432 0.341857ZM29.9884 13.9021H30.0509L24.1652 3.68005L32.7655 3.71776L42.5418 20.8272L39.4818 26.1274L31.4627 26.1317L34.2586 21.2892L29.9884 13.9021ZM20.2043 3.62966L24.2175 10.5723L18.6609 10.5721L9.148 27.0694L8.4991 28.1904L4.19013 20.6509L14.1192 3.62966H20.2043ZM16.3458 21.2526L20.5844 13.9019L26.1424 13.9021L30.4132 21.2902L27.6166 26.1338L19.1663 26.1384L16.3458 21.2526ZM10.4187 31.5314L12.0312 28.735L14.4292 24.5928L17.2443 29.4691L25.6934 29.4645L25.6797 29.4881L37.5587 29.5022L33.2082 36.9618L13.5029 36.8736L10.4187 31.5314Z" fill="#443A6A"/></g>
        <g id="logotype" transform=""></g>
        
      </svg>
    